<svg width="28" height="28" viewBox="0 0 28 28" fill="none" xmlns="http://www.w3.org/2000/svg">
<path d="M22.1666 18.6667V22.1667C22.1666 22.4761 22.0437 22.7728 21.8249 22.9916C21.6061 23.2104 21.3094 23.3333 21 23.3333H6.99996C6.38112 23.3333 5.78763 23.0875 5.35004 22.6499C4.91246 22.2123 4.66663 21.6188 4.66663 21V7M19.8333 9.33333V5.83333C19.8333 5.52391 19.7104 5.22717 19.4916 5.00837C19.2728 4.78958 18.976 4.66666 18.6666 4.66666H6.99996C6.38112 4.66666 5.78763 4.9125 5.35004 5.35008C4.91246 5.78767 4.66663 6.38116 4.66663 7C4.66663 7.61884 4.91246 8.21233 5.35004 8.64991C5.78763 9.0875 6.38112 9.33333 6.99996 9.33333H21C21.3094 9.33333 21.6061 9.45625 21.8249 9.67504C22.0437 9.89383 22.1666 10.1906 22.1666 10.5V14L19.8333 9.33333Z" stroke="#29B6F6" stroke-width="1.75" stroke-linecap="round" stroke-linejoin="round"/>
<path d="M23.3334 14V18.6667H18.6667C18.0479 18.6667 17.4544 18.4208 17.0168 17.9832C16.5792 17.5457 16.3334 16.9522 16.3334 16.3333C16.3334 15.7145 16.5792 15.121 17.0168 14.6834C17.4544 14.2458 18.0479 14 18.6667 14H23.3334Z" stroke="#29B6F6" stroke-width="1.75" stroke-linecap="round" stroke-linejoin="round"/>
</svg>
