<svg width="28" height="28" viewBox="0 0 28 28" fill="none" xmlns="http://www.w3.org/2000/svg">
<path d="M14 9.33334V14L16.3333 16.3333" stroke="#29B6F6" stroke-width="1.75" stroke-linecap="round" stroke-linejoin="round"/>
<path d="M3.55835 12.8333C3.81979 10.2667 5.01699 7.88622 6.92154 6.14596C8.82609 4.40571 11.3047 3.42754 13.8844 3.39807C16.4641 3.3686 18.9644 4.28991 20.9082 5.98621C22.852 7.68251 24.1032 10.0351 24.4232 12.595C24.7432 15.155 24.1095 17.7431 22.6431 19.8657C21.1767 21.9883 18.9801 23.4967 16.4725 24.1032C13.9649 24.7096 11.3218 24.3716 9.04751 23.1537C6.7732 21.9359 5.02686 19.9233 4.14168 17.5M3.55835 23.3333V17.5H9.39168" stroke="#29B6F6" stroke-width="1.75" stroke-linecap="round" stroke-linejoin="round"/>
</svg>
