<svg width="44" height="44" viewBox="0 0 44 44" fill="none" xmlns="http://www.w3.org/2000/svg">
<path d="M11 34.8333C14.0376 34.8333 16.5 32.3709 16.5 29.3333C16.5 26.2958 14.0376 23.8333 11 23.8333C7.96243 23.8333 5.5 26.2958 5.5 29.3333C5.5 32.3709 7.96243 34.8333 11 34.8333Z" fill="#E76384"/>
<path d="M29.3333 38.5C31.3583 38.5 33 36.8584 33 34.8333C33 32.8083 31.3583 31.1667 29.3333 31.1667C27.3082 31.1667 25.6666 32.8083 25.6666 34.8333C25.6666 36.8584 27.3082 38.5 29.3333 38.5Z" fill="#FF5D3E"/>
<path d="M26.5834 22C31.1397 22 34.8334 18.3063 34.8334 13.75C34.8334 9.19365 31.1397 5.5 26.5834 5.5C22.027 5.5 18.3334 9.19365 18.3334 13.75C18.3334 18.3063 22.027 22 26.5834 22Z" fill="#29B6F6"/>
</svg>
