<svg width="28" height="28" viewBox="0 0 28 28" fill="none" xmlns="http://www.w3.org/2000/svg">
<path d="M5.83333 23.3333C7.122 23.3333 8.16667 22.2887 8.16667 21C8.16667 19.7113 7.122 18.6667 5.83333 18.6667C4.54467 18.6667 3.5 19.7113 3.5 21C3.5 22.2887 4.54467 23.3333 5.83333 23.3333Z" stroke="#29B6F6" stroke-width="1.75" stroke-linecap="round" stroke-linejoin="round"/>
<path d="M22.1667 9.33333C23.4554 9.33333 24.5 8.28867 24.5 7C24.5 5.71134 23.4554 4.66667 22.1667 4.66667C20.878 4.66667 19.8334 5.71134 19.8334 7C19.8334 8.28867 20.878 9.33333 22.1667 9.33333Z" stroke="#29B6F6" stroke-width="1.75" stroke-linecap="round" stroke-linejoin="round"/>
<path d="M22.1667 9.33334V15.1667C22.1667 16.7138 21.5521 18.1975 20.4582 19.2915C19.3642 20.3854 17.8805 21 16.3334 21H12.8334L16.3334 24.5" stroke="#29B6F6" stroke-width="1.75" stroke-linecap="round" stroke-linejoin="round"/>
<path d="M5.83337 18.6667V12.8333C5.83337 11.2862 6.44796 9.80251 7.54192 8.70854C8.63588 7.61458 10.1196 7 11.6667 7H15.1667M15.1667 7L11.6667 3.5M15.1667 7L11.6667 10.5" stroke="#29B6F6" stroke-width="1.75" stroke-linecap="round" stroke-linejoin="round"/>
</svg>
